<svg width="560" height="113" fill="none" xmlns="http://www.w3.org/2000/svg"><path d="M33.035 56h-5.453l-2.788-8.303H8.684L5.833 56H.441l12.95-37.178h6.693L33.035 56Zm-9.852-13.074-6.444-18.9-6.445 18.9h12.889ZM71.292 56h-4.957V26.444l-9.729 19.952H53.26l-9.604-19.953V56h-5.02V18.822h6.445l9.914 20.262 9.976-20.262h6.32V56Zm31.658 0H80.147V18.822h22.803v4.833H85.228v11.34h16.731v4.833h-16.73v11.339h17.721V56Zm36.728 0h-5.514l-8.737-15.49h-8.551V56h-5.081V18.822h17.473c1.426 0 3.037.496 4.152 1.301.868.62 2.788 2.54 3.284 3.284a6.54 6.54 0 0 1 1.053 3.532v5.577c0 1.24-.371 2.416-1.053 3.47-.496.743-2.416 2.664-3.284 3.284-.744.558-1.921 1.053-2.788 1.115L139.678 56Zm-7.002-23.608v-5.329c0-.124 0-.62-.062-.681-.371-.682-2.168-2.665-3.036-2.727h-12.702v12.021h12.331c1.115 0 2.974-1.735 3.407-2.602.062-.124.062-.558.062-.682ZM152.455 56h-5.081V18.822h5.081V56Zm34.926-7.931c-.434 1.115-1.053 2.354-1.735 3.222-1.797 2.23-4.399 5.019-7.622 5.019h-8.179c-1.177 0-2.602-.496-3.594-1.054-1.239-.743-3.717-3.222-4.461-4.337-.682-.991-.929-2.169-.929-3.284V27.187c0-1.115.247-2.23.929-3.222.744-1.053 3.222-3.656 4.461-4.4.992-.557 2.355-1.053 3.532-1.053h8.241c3.223 0 5.887 2.727 7.622 5.02.496.619.991 1.548 1.735 3.16l-4.957 1.424c-.682-1.982-2.665-3.841-4.09-4.709 0 0-.248-.062-.495-.062h-7.746a1.24 1.24 0 0 0-.558.124c-.867.434-2.664 2.107-3.408 3.346-.123.186-.123.496-.123.806v19.952c0 1.053 2.54 3.284 3.531 3.78.124.062.31.124.558.124h7.746c.247 0 .495-.062.619-.124 1.363-.744 3.284-2.665 3.966-4.586l4.957 1.302ZM224.25 56h-5.453l-2.788-8.303h-16.111L197.048 56h-5.391l12.951-37.178h6.692L224.25 56Zm-9.852-13.074-6.444-18.9-6.445 18.9h12.889ZM256.372 56h-5.886l-15.615-28.38V56h-5.019V18.822h6.01l15.491 28.689V18.822h5.019V56Zm46.083 0h-22.802V18.822h22.802v4.833h-17.721v11.34h16.73v4.833h-16.73v11.339h17.721V56Zm34.807-8.613c0 1.115-.185 2.23-.867 3.222-.744 1.115-3.222 3.594-4.461 4.338-.992.557-2.355 1.053-3.532 1.053H311.3V18.822h17.102c1.115 0 2.54.372 3.532.991 1.239.744 3.717 3.408 4.461 4.462.682.991.867 2.107.867 3.222v19.89Zm-5.081-.124V27.621c0-.248 0-.372-.061-.496-.62-1.301-2.665-2.974-3.594-3.408-.124-.062-.186-.062-.434-.062h-11.711v27.512h11.711c.248 0 .372-.062.434-.062.991-.496 3.655-2.788 3.655-3.842Zm39.872.434c0 1.115-.185 2.23-.867 3.222-.744 1.115-3.222 3.594-4.461 4.337-.992.558-2.355 1.054-3.532 1.054h-8.303c-1.178 0-2.603-.496-3.594-1.054-1.24-.743-3.718-3.222-4.462-4.337-.681-.991-.929-2.107-.929-3.222V18.822h5.081v28.751c0 .93 2.788 3.346 3.718 3.78a.96.96 0 0 0 .495.124h7.684c.248 0 .434-.062.558-.124.929-.434 3.531-2.913 3.531-3.78V18.822h5.081v28.875Zm34.62.372c-.434 1.115-1.053 2.354-1.735 3.222-1.797 2.23-4.399 5.019-7.621 5.019h-8.18c-1.177 0-2.602-.496-3.593-1.054-1.24-.743-3.718-3.222-4.462-4.337-.681-.991-.929-2.169-.929-3.284V27.187c0-1.115.248-2.23.929-3.222.744-1.053 3.222-3.656 4.462-4.4.991-.557 2.354-1.053 3.531-1.053h8.242c3.222 0 5.886 2.727 7.621 5.02.496.619.991 1.548 1.735 3.16l-4.957 1.424c-.682-1.982-2.664-3.841-4.09-4.709 0 0-.247-.062-.495-.062h-7.746c-.248 0-.433.062-.557.124-.868.434-2.665 2.107-3.408 3.346-.124.186-.124.496-.124.806v19.952c0 1.053 2.54 3.284 3.532 3.78.124.062.309.124.557.124h7.746c.248 0 .495-.062.619-.124 1.364-.744 3.284-2.665 3.966-4.586l4.957 1.302ZM443.542 56h-5.453l-2.788-8.303h-16.11L416.34 56h-5.391L423.9 18.822h6.692L443.542 56Zm-9.852-13.074-6.444-18.9-6.444 18.9h12.888Zm35.991-19.27h-10.596V56h-5.081V23.655h-10.596v-4.833h26.273v4.833ZM481.696 56h-5.081V18.822h5.081V56Zm36.165-8.365c0 1.115-.248 2.293-.93 3.284-.743 1.115-3.222 3.594-4.461 4.337-.991.558-2.416 1.054-3.594 1.054h-9.79c-1.177 0-2.54-.496-3.532-1.054-1.239-.743-3.78-3.222-4.523-4.337-.682-.991-.868-2.23-.868-3.284V27.249c0-1.053.186-2.293.868-3.284.743-1.115 3.284-3.656 4.523-4.4.992-.557 2.355-1.053 3.532-1.053h9.79c1.178 0 2.603.496 3.594 1.054 1.239.743 3.718 3.346 4.461 4.399.682.991.93 2.169.93 3.284v20.386Zm-5.081-.062v-20.2c0-.248-.062-.434-.124-.558-.682-1.239-2.541-2.912-3.408-3.346a1.24 1.24 0 0 0-.558-.124h-9.294a1.24 1.24 0 0 0-.558.124c-.991.496-3.594 2.85-3.594 3.904v20.2c0 .93 2.665 3.346 3.594 3.78.124.062.31.124.558.124h9.294c.248 0 .434-.062.558-.124.991-.496 3.532-2.727 3.532-3.78ZM552.876 56h-5.886l-15.615-28.38V56h-5.019V18.822h6.011l15.49 28.689V18.822h5.019V56ZM309.56 112h-5.081V74.822h5.081V112Zm35.297 0h-5.886l-15.615-28.38V112h-5.019V74.822h6.01l15.491 28.689V74.822h5.019V112Zm36.267-8.365c0 1.053-.186 2.293-.868 3.284-.743 1.115-3.284 3.594-4.523 4.337-.991.558-2.355 1.054-3.532 1.054h-10.348c-3.284 0-5.948-2.727-7.683-5.019-.496-.682-.93-1.611-1.673-3.222l4.895-1.302.557 1.116c.806 1.425 2.603 2.974 3.532 3.47.248.124.434.124.558.124h9.914c.186 0 .372-.062.496-.124.991-.496 3.594-2.727 3.594-3.78v-3.78c0-.991-.682-1.92-1.425-2.107l-16.854-4.337c-2.851-.743-4.4-3.594-4.4-6.32v-3.78c0-1.053.186-2.293.868-3.284.743-1.115 3.284-3.656 4.523-4.4.991-.557 2.355-1.053 3.532-1.053h9.109c3.222 0 5.886 2.727 7.621 5.02.496.619.991 1.548 1.735 3.16l-4.957 1.425-.62-1.24c-.681-1.363-2.602-2.974-3.532-3.47 0 0-.185-.062-.433-.062h-8.613c-.248 0-.372.062-.558.124-.929.434-3.594 2.85-3.594 3.78v3.532c0 .93.62 1.797 1.363 1.983l16.792 4.461c2.789.744 4.524 3.47 4.524 6.197v4.213Zm32.178-23.98h-10.596V112h-5.081V79.655H387.03v-4.833h26.272v4.833ZM425.317 112h-5.081V74.822h5.081V112Zm33.005-32.345h-10.595V112h-5.081V79.655H432.05v-4.833h26.272v4.833Zm32.835 24.042c0 1.115-.186 2.231-.867 3.222-.744 1.115-3.222 3.594-4.462 4.337-.991.558-2.354 1.054-3.532 1.054h-8.303c-1.177 0-2.602-.496-3.594-1.054-1.239-.743-3.717-3.222-4.461-4.337-.682-.991-.929-2.107-.929-3.222V74.822h5.081v28.751c0 .929 2.788 3.346 3.717 3.78a.96.96 0 0 0 .496.124h7.684c.247 0 .433-.062.557-.124.93-.434 3.532-2.912 3.532-3.78V74.822h5.081v28.875Zm32.699-24.042H513.26V112h-5.081V79.655h-10.596v-4.833h26.273v4.833ZM553.654 112h-22.802V74.822h22.802v4.833h-17.721v11.34h16.73v4.833h-16.73v11.339h17.721V112Z" fill="#070A1D"/><path fill="#CC000F" d="M64 76h223v12H64zm-12 0H40v12h12z"/><path fill="#1C5F9D" d="M101 100h186v12H101zm-12 0H77v12h12z"/></svg>